<svg xmlns="http://www.w3.org/2000/svg" xmlns:xlink="http://www.w3.org/1999/xlink" width="8" height="8" viewBox="0 0 8 8">
  <defs>
    <style>
      .cls-1 {
        fill: none;
      }

      .cls-2 {
        clip-path: url(#clip-path);
      }

      .cls-3 {
        fill: #fff;
      }
    </style>
    <clipPath id="clip-path">
      <rect class="cls-1" width="8" height="8"/>
    </clipPath>
  </defs>
  <g id="close" class="cls-2">
    <path id="close-2" data-name="close" class="cls-3" d="M5.4,4,7.7,1.7A.967.967,0,0,0,7.7.3.967.967,0,0,0,6.3.3L4,2.6,1.7.3A.967.967,0,0,0,.3.3a.967.967,0,0,0,0,1.4L2.6,4,.3,6.3a.967.967,0,0,0,0,1.4A.908.908,0,0,0,1,8a.908.908,0,0,0,.7-.3L4,5.4,6.3,7.7a.967.967,0,0,0,1.4,0,.967.967,0,0,0,0-1.4Z"/>
  </g>
</svg>
